<?xml version="1.0" encoding="UTF-8"?>
<svg xmlns="http://www.w3.org/2000/svg" xmlns:xlink="http://www.w3.org/1999/xlink" width="114.0pt" height="114.0pt" viewBox="0 0 114.0 114.0" version="1.1">

<defs>
<polycosvg ratio="1.000000" offsetx="0.000000" offsety="0.000000" />
</defs><g>
<path style="fill:rgb(0.0%,25.098042%,50.196083%);fill-rule:evenodd;stroke:none;" name="Path No.0" d="M 0.0 114.0 C 38.006577 114.0 76.00942 114.0 114.0 114.0 C 114.0 75.992 114.0 37.992 114.0 0.0 C 75.99587 0.0 37.98671 0.0 0.0 0.0 C 0.0 38.006577 0.0 76.00942 0.0 114.0 Z M 20.0 66.0 C 20.0 65.402885 20.0 64.64946 20.0 64.0 C 16.342447 64.0 12.657262 64.0 9.0 64.0 C 9.0 57.661335 9.0 51.328 9.0 45.0 C 8.402883 45.0 7.649462 45.0 7.0 45.0 C 7.112475 50.339462 6.8542128 55.70387 7.0999374 61.031723 C 7.328832 62.417095 7.3748946 64.33 8.435611 65.17304 C 12.092097 66.51449 16.20758 65.742615 20.0 66.0 Z M 26.5 62.0 C 26.669134 61.1695 26.080801 60.270237 25.878864 59.389835 C 25.420404 57.68021 25.063845 55.931503 25.219013 54.15204 C 25.252972 52.621944 25.894135 50.650414 25.5 49.0 C 23.584476 52.44487 23.199865 58.657764 26.5 62.0 Z M 28.0 63.4375 C 28.359118 63.85035 28.647789 63.739502 29.0 63.5 C 28.649626 63.2274 28.331888 63.1112 28.0 63.4375 Z M 29.0 45.3125 C 29.56707 45.998417 30.83426 45.83434 31.786837 45.785614 C 32.85628 45.69055 33.93548 45.594624 35.0 45.5 C 32.992607 45.34314 31.006937 45.112373 29.0 45.0 C 29.0 45.116665 29.0 45.220833 29.0 45.3125 Z M 30.0 64.3125 C 30.464512 64.901054 31.439413 64.868996 32.199955 64.802704 C 33.039124 64.71198 34.08895 64.598495 35.0 64.5 C 33.33301 64.339966 31.66849 64.10614 30.0 64.0 C 30.0 64.11667 30.0 64.22083 30.0 64.3125 Z M 35.0 56.25 C 35.848732 57.15606 37.643764 56.88884 39.0 57.0 C 38.80702 59.43213 38.001923 62.58056 39.5 65.0 C 40.242897 62.090656 39.917286 58.217197 40.0 55.0 C 38.4763 55.02403 36.370407 55.175995 35.0 56.25 Z M 36.0 46.5 C 36.89435 47.416603 38.19033 48.549095 38.5 50.0 C 39.066147 48.497475 37.626152 46.498287 36.0 46.0 C 36.0 46.14352 36.0 46.35648 36.0 46.5 Z M 46.0 66.0 C 50.122025 66.08842 54.608437 65.744576 57.613506 62.653698 C 60.580948 59.844883 61.267487 55.293022 60.160477 51.448025 C 59.443203 48.93126 57.488754 46.933983 55.09753 45.89565 C 52.67641 44.808784 49.048046 45.05975 46.0 45.0 C 46.0 52.003902 46.0 59.001087 46.0 66.0 Z M 47.0 64.0 C 49.998116 63.84805 54.477207 64.61776 57.013943 62.084126 C 59.27482 59.875843 59.163326 55.418976 58.83046 51.937656 C 58.59031 49.70028 57.280434 47.560825 54.97074 47.3245 C 52.34375 46.829353 49.644566 47.06248 47.0 47.0 C 47.0 52.664295 47.0 58.349804 47.0 64.0 Z M 67.5 65.0 C 67.66677 62.331623 67.83359 59.66259 68.0 57.0 C 71.60262 56.883926 76.3293 57.53873 78.88183 55.114338 C 81.42605 52.74952 81.117004 48.45559 78.37686 46.475494 C 77.161285 45.426743 75.10142 45.162323 73.34979 45.052147 C 71.41148 44.96756 69.48043 45.015057 67.54341 45.0 C 67.34054 45.0 67.1594 45.0 67.0 45.0 C 66.920654 51.67723 66.97378 58.351364 67.5 65.0 Z M 68.0 55.0 C 69.787445 54.996746 72.053154 55.003967 74.00016 54.997856 C 75.30545 54.951286 77.06166 54.962036 78.35739 54.271645 C 79.95141 53.566437 79.9312 50.631943 79.5625 49.340237 C 78.968414 47.483856 77.15377 47.208294 75.56985 47.05874 C 73.049515 46.931286 70.5133 47.049133 68.0 47.0 C 68.0 49.662983 68.0 52.341015 68.0 55.0 Z M 87.0 65.0 C 87.597115 65.0 88.35054 65.0 89.0 65.0 C 89.0 61.00463 89.0 56.99537 89.0 53.0 C 89.874435 53.0 91.04676 53.0 92.0 53.0 C 91.55149 50.58811 90.11701 47.721226 90.0 45.0 C 89.125565 45.0 87.95324 45.0 87.0 45.0 C 87.0 51.668163 87.0 58.334167 87.0 65.0 Z M 92.5 56.0 C 92.794556 55.35721 92.984505 54.70184 93.0 54.0 C 92.10621 54.081524 91.925545 54.79694 92.16667 55.481335 C 92.27451 55.64913 92.401054 55.84603 92.5 56.0 Z M 93.5 59.0 C 93.794556 58.35721 93.984505 57.70184 94.0 57.0 C 93.10621 57.081524 92.925545 57.79694 93.16667 58.481335 C 93.291115 58.67497 93.40222 58.84786 93.5 59.0 Z M 94.0 60.25 C 94.662094 61.460968 95.118286 62.69686 95.0 64.0 C 95.597115 64.0 96.35054 64.0 97.0 64.0 C 96.94013 62.365597 97.93198 60.467056 97.5 59.0 C 96.489815 59.76836 95.25342 60.01076 94.0 60.0 C 94.0 60.07176 94.0 60.17824 94.0 60.25 Z M 98.5 58.0 C 98.794556 57.35721 98.984505 56.70184 99.0 56.0 C 98.10621 56.081524 97.925545 56.79694 98.16667 57.481335 C 98.27451 57.64913 98.401054 57.84603 98.5 58.0 Z M 99.0 54.4375 C 99.359116 54.85035 99.64779 54.739502 100.0 54.5 C 99.64963 54.2274 99.33189 54.1112 99.0 54.4375 Z M 100.0 51.5 C 100.7803 52.063446 101.987404 51.96125 103.0 52.0 C 103.0 56.338665 103.0 60.672 103.0 65.0 C 103.597115 65.0 104.35054 65.0 105.0 65.0 C 105.0 58.334713 105.0 51.659954 105.0 45.0 C 104.125565 45.0 102.95324 45.0 102.0 45.0 C 101.71899 47.693275 101.14648 49.350716 100.0 51.5 Z " />

<path style="fill:rgb(100.0%,100.0%,100.0%);fill-rule:evenodd;stroke:none;" name="Path No.1" d="M 21.0 67.0 C 21.0 65.81242 21.0 64.28927 21.0 63.0 C 17.342447 63.0 13.657262 63.0 10.0 63.0 C 10.0 56.661335 10.0 50.328 10.0 44.0 C 8.81242 44.0 7.2892723 44.0 6.0 44.0 C 6.2087207 50.251865 5.726803 56.509544 6.1934295 62.745495 C 6.3581467 64.1599 6.3331413 65.898544 7.8201284 66.36269 C 12.133844 67.185265 16.611292 67.02602 21.0 67.0 Z M 37.5 64.0 C 37.88102 64.60477 38.01285 65.29601 38.0 66.0 C 38.874435 66.0 40.04676 66.0 41.0 66.0 C 41.0 61.99719 41.0 57.98793 41.0 54.0 C 38.424152 54.018852 35.588245 53.960438 34.0 56.0 C 34.0 56.59712 34.0 57.350536 34.0 58.0 C 35.18758 58.0 36.710728 58.0 38.0 58.0 C 37.635136 59.403305 36.865204 61.39949 35.407055 62.24126 C 34.27681 62.766937 32.431625 62.5357 31.010946 62.405598 C 26.207033 61.51021 25.866903 54.166134 27.510925 49.68068 C 28.453932 48.873764 29.395071 47.363968 30.621973 47.47656 C 31.663826 47.32564 32.85865 47.39917 33.809956 47.475315 C 36.42431 48.05203 37.05964 51.125942 39.5 52.0 C 39.947582 51.552418 40.514732 50.985268 41.0 50.5 C 40.039207 49.16865 39.63809 47.60088 38.4506 46.481167 C 35.712074 42.83547 28.100124 43.606514 25.278389 47.54886 C 22.748253 50.44877 22.008522 57.957115 24.943254 61.963627 C 27.796835 65.79362 34.054203 67.316414 37.5 64.0 Z M 45.0 67.0 C 49.143314 67.05167 55.218227 67.26366 58.61884 63.667683 C 61.723797 60.70759 62.613632 54.808136 61.165756 50.43301 C 60.347042 47.618088 58.02468 45.488987 55.263954 44.577015 C 52.280495 43.782104 48.307926 44.06853 45.0 44.0 C 45.0 51.6811 45.0 59.329674 45.0 67.0 Z M 48.0 63.0 C 50.95902 63.07058 54.156086 63.131756 56.318806 60.88259 C 58.071766 59.039627 58.1886 55.476124 57.847137 52.6688 C 57.75823 51.475243 57.5374 50.664585 56.808487 49.86373 C 54.953632 47.57774 50.997303 48.05059 48.0 48.0 C 48.0 52.99763 48.0 58.004177 48.0 63.0 Z M 66.0 66.0 C 66.874435 66.0 68.04676 66.0 69.0 66.0 C 69.0 63.33413 69.0 60.662834 69.0 58.0 C 72.43457 57.87719 77.43825 58.64974 80.262276 55.762806 C 81.58139 54.462223 82.01413 52.637817 82.43747 50.910942 C 81.751816 49.43268 81.79687 47.55205 80.281006 46.250782 C 77.51778 43.29659 72.29458 44.175003 68.670746 44.0 C 67.87574 44.0 66.855 44.0 66.0 44.0 C 66.0 51.342133 66.0 58.66108 66.0 66.0 Z M 69.0 54.0 C 71.857475 53.739883 74.88796 54.48438 77.3717 53.327213 C 78.63061 52.58689 79.0615 50.864044 78.31314 49.62763 C 77.49597 48.242165 76.00336 48.17269 74.61491 48.032215 C 72.94998 47.966118 70.814804 48.023144 69.0 48.0 C 69.0 49.792484 69.0 52.051743 69.0 54.0 Z M 86.0 66.0 C 87.18758 66.0 88.71073 66.0 90.0 66.0 C 90.0 62.49028 90.0 58.99954 90.0 55.5 C 90.152176 55.04348 90.3347 54.495903 90.5 54.0 C 91.179375 56.0501 91.82266 58.11223 92.64447 60.105022 C 93.4652 61.949936 94.2305 64.60277 96.0 66.0 C 97.92252 64.502266 98.42699 62.028336 99.22245 59.815166 C 99.993805 57.53735 100.80435 55.289726 101.5 53.0 C 102.25755 56.80052 101.87807 61.806133 102.0 66.0 C 103.18758 66.0 104.71073 66.0 106.0 66.0 C 106.0 58.65745 106.0 51.331882 106.0 44.0 C 104.32217 44.0 102.66939 44.0 101.0 44.0 C 100.74825 46.83753 99.59626 49.46057 98.73443 52.147327 C 97.72374 54.488483 96.98854 56.943726 95.5 59.0 C 94.89742 57.94472 94.71392 56.355377 94.18547 55.116165 C 93.173775 51.401768 91.4009 47.853447 91.0 44.0 C 89.32217 44.0 87.66939 44.0 86.0 44.0 C 86.0 51.346966 86.0 58.662983 86.0 66.0 Z " />

<path style="fill:rgb(88.2353%,90.98039%,94.117645%);fill-rule:evenodd;stroke:none;" name="Path No.2" d="M 86.0 66.0 C 87.34252 65.92907 88.6796 65.72477 90.0 65.5 C 86.457855 64.875465 87.02604 60.12546 87.0 56.617344 C 87.0 52.728268 87.0 48.874947 87.0 45.0 C 88.40509 45.02362 89.97357 45.496536 91.0 45.0 C 90.11322 43.676785 87.74944 44.213585 86.0 44.0 C 86.0 51.331776 86.0 58.67087 86.0 66.0 Z " />
</g>
</svg>
