<?xml version="1.0" encoding="UTF-8"?>
<svg xmlns="http://www.w3.org/2000/svg" xmlns:xlink="http://www.w3.org/1999/xlink" width="73.0pt" height="73.0pt" viewBox="0 0 73.0 73.0" version="1.1">

<defs>
<polycosvg ratio="1.000000" offsetx="0.000000" offsety="0.000000" />
</defs><g>
<path style="fill:rgb(0.0%,25.098042%,50.196083%);fill-rule:evenodd;stroke:none;" name="Path No.0" d="M 0.0 73.0 C 24.340174 73.0 48.670494 73.0 73.0 73.0 C 73.0 48.656704 73.0 24.33263 73.0 0.0 C 48.65813 0.0 24.334055 0.0 0.0 0.0 C 0.0 24.325047 0.0 48.68277 0.0 73.0 Z M 5.0 27.4375 C 5.359118 27.850351 5.647789 27.7395 6.0 27.5 C 5.6496253 27.227404 5.3318887 27.111198 5.0 27.4375 Z M 7.0 31.453125 C 7.423234 32.06141 8.336443 32.893013 9.0 32.5 C 8.471295 31.970675 7.8100343 31.22537 7.0 31.0 C 7.0 31.130064 7.0 31.323061 7.0 31.453125 Z M 10.0 40.5 C 10.030665 41.049606 10.186024 41.557514 10.5 42.0 C 13.014884 41.882927 15.521435 41.39307 18.0 41.0 C 18.060436 35.932896 19.497925 31.038172 21.03973 26.278313 C 21.85142 23.607801 22.31327 20.821167 22.985624 18.127266 C 23.26929 16.941021 23.57629 15.799719 23.893732 14.628592 C 23.998411 14.18552 24.147398 13.744245 24.32623 13.338293 C 24.615784 12.860758 24.22512 12.632553 24.0 12.0 C 22.083786 13.534784 21.617546 16.888315 20.70956 19.525774 C 19.33547 23.845001 18.604614 28.363983 17.223755 32.664635 C 16.582598 34.46568 16.00797 36.948986 14.4314995 38.363087 C 14.089923 38.7075 13.776389 39.04932 13.465999 39.415974 C 12.409308 39.819645 10.905868 39.86542 10.0 40.5 Z M 22.0 41.3125 C 22.378468 42.00802 23.40634 41.67272 24.0 41.5 C 23.403395 41.319855 22.667953 41.08633 22.0 41.0 C 22.0 41.116665 22.0 41.220833 22.0 41.3125 Z M 26.0 6.25 C 26.449854 7.0098534 27.667393 6.9394717 28.59729 7.06987 C 29.42663 7.142121 30.187572 7.6006875 31.0 7.5 C 29.598875 5.8680706 27.826124 5.903758 26.0 6.0 C 26.0 6.071759 26.0 6.178241 26.0 6.25 Z M 34.5 53.0 C 35.03113 51.907776 34.13959 50.476597 33.669823 49.261677 C 33.097828 48.209736 33.094707 46.48012 32.0 46.0 C 31.878754 48.55317 32.51253 51.248463 34.5 53.0 Z M 34.0 8.375 C 34.69582 9.406829 35.895733 10.533568 36.19641 11.940184 C 36.74853 13.683792 36.782135 15.559286 36.287052 17.319487 C 36.053066 19.043512 34.833057 20.507498 34.5 22.0 C 37.924713 21.149204 40.705566 15.864421 38.918488 12.387943 C 38.069855 10.594018 36.082165 8.694274 34.0 8.0 C 34.0 8.12132 34.0 8.26368 34.0 8.375 Z M 35.0 66.25 C 35.759182 67.16672 37.350945 66.897255 38.617138 66.965454 C 42.410408 67.02472 46.20939 66.98679 50.0 67.0 C 50.0 66.402885 50.0 65.64946 50.0 65.0 C 48.322166 65.0 46.669388 65.0 45.0 65.0 C 44.83178 59.289524 46.944798 53.90801 48.374775 48.497147 C 49.087185 45.81683 49.652363 43.11572 50.43142 40.45547 C 51.231922 38.114933 51.752342 35.64188 53.0 33.5 C 51.707874 33.052765 50.349304 32.983444 49.0 33.0 C 48.849503 36.139275 47.946236 39.202816 47.18608 42.225563 C 46.036938 47.21124 44.70209 52.153877 43.246033 57.05378 C 42.628605 59.13492 42.08128 62.03566 40.206604 63.587795 C 39.09112 65.05828 36.46752 64.95728 35.0 66.25 Z M 51.0 48.25 C 51.641964 49.222103 53.53818 49.083218 54.693 48.67213 C 54.78112 48.622723 54.91188 48.549408 55.0 48.5 C 54.492054 47.992054 54.002796 47.502796 53.5 47.0 C 52.768238 47.62159 51.896935 47.99682 51.0 48.0 C 51.0 48.07176 51.0 48.17824 51.0 48.25 Z M 64.0 32.375 C 64.346634 32.953514 64.99794 33.47513 65.5 34.0 C 65.86073 33.38041 66.00968 32.706432 66.0 32.0 C 65.404564 32.0 64.63911 32.0 64.0 32.0 C 64.0 32.12132 64.0 32.26368 64.0 32.375 Z " />

<path style="fill:rgb(100.0%,100.0%,100.0%);fill-rule:evenodd;stroke:none;" name="Path No.1" d="M 9.0 35.0 C 9.889634 34.505283 10.557334 33.82571 11.0 33.0 C 10.374205 31.707521 8.9121475 30.524242 8.121618 29.165323 C 5.2710156 24.719559 7.459308 18.886318 11.024696 15.5171795 C 12.775193 13.721739 14.763773 12.1400385 17.017157 11.040516 C 19.244223 9.8315115 20.997461 9.138015 23.0 10.5 C 21.835592 11.530458 20.431393 12.034492 19.0 12.5 C 20.947834 14.664982 20.168558 17.16217 19.35607 19.68792 C 18.218231 23.78213 17.390684 27.97077 16.109879 32.019913 C 15.454006 34.14661 14.720917 36.252613 13.063357 37.72984 C 11.794457 39.002365 9.5819 39.03499 8.0 40.5 C 10.434879 42.376945 14.494412 42.052464 17.855148 42.269993 C 20.939802 42.487026 25.3478 43.05692 28.0 40.5 C 26.764877 39.907234 24.999813 40.05051 23.544466 40.014496 C 22.02843 39.997158 20.512197 39.998478 19.0 40.0 C 19.258232 37.919567 19.814772 35.37783 20.30305 33.15891 C 20.873674 30.771183 21.744549 28.439692 22.0 26.0 C 24.4051 25.987707 27.495802 26.110744 30.068256 25.513433 C 33.37151 24.609629 37.558117 22.405567 39.631187 19.189383 C 41.22537 16.026611 41.097023 11.80164 38.33571 9.336462 C 36.36897 6.8561053 32.728054 7.2710137 30.357107 5.5902267 C 29.807878 6.0560975 28.836199 5.8198714 28.029812 5.8375907 C 25.610058 5.7690277 23.685287 6.3554378 21.375921 7.0067596 C 16.65115 8.132009 12.362522 10.791226 9.175322 14.423588 C 6.5185122 17.494936 3.8100748 22.635511 4.3551397 27.18558 C 4.5624027 28.710884 5.1924334 30.111097 5.8966827 31.451715 C 6.656719 32.853165 7.6258945 34.19592 9.0 35.0 Z M 23.0 24.0 C 26.382343 23.830273 31.066053 23.555187 32.729996 20.95009 C 34.891308 18.525156 36.114094 15.104163 34.61641 12.116637 C 33.80014 9.683353 31.723677 8.982983 29.482254 8.721404 C 28.331594 8.554759 27.174412 8.63846 26.039225 8.428155 C 24.774117 8.883513 24.399265 9.96594 24.0 11.0 C 24.597118 11.0 25.350538 11.0 26.0 11.0 C 25.636234 15.464453 23.210976 19.515322 23.0 24.0 Z M 37.0 52.5 C 33.905525 49.153336 33.642372 43.749012 36.209454 40.092808 C 38.773567 36.184242 43.45025 34.094845 48.0 34.0 C 47.46161 36.853455 46.255505 40.353336 45.63287 43.457897 C 44.484173 48.340374 43.199196 53.16748 41.715893 57.948265 C 41.399956 59.16008 40.861126 60.28927 40.456013 61.46498 C 39.432957 62.40853 38.475613 63.546326 36.914146 64.09356 C 36.33618 64.36716 35.52999 64.6107 34.996716 65.06439 C 34.462593 65.63337 34.218212 66.33294 34.0 67.0 C 39.660072 67.0 45.34526 67.0 51.0 67.0 C 51.0 66.125565 51.0 64.95324 51.0 64.0 C 49.322166 64.0 47.669388 64.0 46.0 64.0 C 45.99907 58.830276 48.771122 54.106037 49.0 49.0 C 52.524097 49.010063 54.963104 49.373653 58.0 49.0 C 58.01116 50.035313 58.17489 51.024136 58.5 52.0 C 59.194847 49.538815 59.74441 47.043236 60.0 44.5 C 59.847828 44.04348 59.665302 43.495903 59.5 43.0 C 57.78277 47.18421 53.698963 46.28077 50.0 47.0 C 50.454533 44.84527 51.275517 42.204456 51.922432 39.90059 C 52.389748 38.474506 53.062855 36.66596 53.92936 35.27701 C 58.260284 32.01735 64.58172 34.547928 65.5 39.0 C 66.43341 36.423515 67.031715 33.74995 67.0 31.0 C 62.03056 31.756006 57.0527 32.139706 52.030895 32.00094 C 48.27653 31.985394 44.365845 32.041355 40.933758 33.76132 C 37.06851 35.737362 32.92247 40.128326 31.731585 44.775234 C 30.98719 46.456364 31.197908 49.067738 31.926023 50.916042 C 32.270218 52.122414 32.951767 53.121323 34.11976 53.500725 C 35.219536 53.641098 36.124004 53.02647 37.0 52.5 Z " />

<path style="fill:rgb(0.0%,19.215687%,46.27451%);fill-rule:evenodd;stroke:none;" name="Path No.2" d="M 7.0 41.5 C 9.158938 43.715984 13.337549 42.74833 16.0 43.0 C 16.0 42.40288 16.0 41.649464 16.0 41.0 C 14.403598 41.03953 12.803274 40.944336 11.217338 41.04839 C 9.768234 41.272717 8.351418 41.454838 7.0 41.0 C 7.0 41.14352 7.0 41.35648 7.0 41.5 Z M 31.0 7.0 C 31.0 6.402882 31.0 5.649462 31.0 5.0 C 29.214691 5.0 26.945309 5.0 25.0 5.0 C 24.937723 6.889074 26.499165 7.0826674 27.888067 7.0 C 28.810484 7.0 30.00672 7.0 31.0 7.0 Z M 34.0 66.5 C 34.030666 67.04961 34.186024 67.55752 34.5 68.0 C 40.00041 68.0 45.49959 68.0 51.0 68.0 C 51.0 67.402885 51.0 66.64946 51.0 66.0 C 47.99537 66.0 45.00463 66.0 42.0 66.0 C 40.4022 66.02 38.820156 65.97168 37.228935 66.02497 C 36.168625 66.10482 34.80179 65.87682 34.0 66.5 Z " />

<path style="fill:rgb(61.960785%,71.37255%,80.78432%);fill-rule:evenodd;stroke:none;" name="Path No.3" d="M 25.0 6.3125 C 25.56707 6.998416 26.83426 6.834341 27.786837 6.7856145 C 28.856281 6.6905527 29.93548 6.594624 31.0 6.5 C 28.992607 6.3431406 27.006937 6.1123743 25.0 6.0 C 25.0 6.116667 25.0 6.2208333 25.0 6.3125 Z M 34.0 65.375 C 34.04431 65.99492 34.234238 66.53299 34.625 67.0 C 40.08009 66.89295 45.550037 66.644516 51.0 66.5 C 47.996933 66.40313 45.007748 66.3067 42.00468 66.20983 C 39.245617 66.22743 36.53079 66.05512 34.0 65.0 C 34.0 65.12132 34.0 65.26368 34.0 65.375 Z " />

<path style="fill:rgb(65.09804%,73.725494%,82.35294%);fill-rule:evenodd;stroke:none;" name="Path No.4" d="M 8.0 40.453125 C 9.5424 42.785606 13.892803 41.448883 16.0 41.5 C 13.277434 41.31878 10.453291 41.31658 8.0 40.0 C 8.0 40.130062 8.0 40.323063 8.0 40.453125 Z " />

<path style="fill:rgb(70.588234%,78.039215%,85.09804%);fill-rule:evenodd;stroke:none;" name="Path No.5" d="M 49.0 48.375 C 50.37331 50.570812 53.95392 49.86598 56.0 50.0 C 56.0 49.40288 56.0 48.649464 56.0 48.0 C 53.655087 48.0 51.334248 48.0 49.0 48.0 C 49.0 48.12132 49.0 48.26368 49.0 48.375 Z " />

<path style="fill:rgb(27.843138%,45.882355%,63.92157%);fill-rule:evenodd;stroke:none;" name="Path No.6" d="M 51.0 64.5 C 48.859497 64.43883 46.84143 64.09676 45.0 63.0 C 45.013985 64.77735 46.447098 65.05178 47.731663 64.85667 C 48.70147 64.7605 49.948067 64.61394 51.0 64.5 Z " />

<path style="fill:rgb(52.156864%,64.31373%,76.07843%);fill-rule:evenodd;stroke:none;" name="Path No.7" d="M 4.5 29.0 C 4.6989465 27.80598 4.9339404 26.62048 4.9821267 25.420885 C 5.052136 24.452475 5.111615 23.07837 4.0 23.0 C 3.8995776 25.033503 4.0706396 27.01793 4.5 29.0 Z " />

<path style="fill:rgb(0.0%,18.82353%,45.882355%);fill-rule:evenodd;stroke:none;" name="Path No.8" d="M 50.0 49.3125 C 50.56707 49.998417 51.834263 49.83434 52.786835 49.785614 C 53.85628 49.69055 54.93548 49.594624 56.0 49.5 C 53.992607 49.34314 52.00694 49.112373 50.0 49.0 C 50.0 49.116665 50.0 49.220833 50.0 49.3125 Z " />

<path style="fill:rgb(32.941177%,49.80392%,66.66667%);fill-rule:evenodd;stroke:none;" name="Path No.9" d="M 63.0 31.3125 C 63.48604 32.223392 64.90906 31.724773 65.687325 31.681059 C 66.125725 31.62059 66.56953 31.559376 67.0 31.5 C 65.65103 31.331219 64.340866 31.0987 63.0 31.0 C 63.0 31.116667 63.0 31.220833 63.0 31.3125 Z " />

<path style="fill:rgb(20.392157%,40.39216%,60.39216%);fill-rule:evenodd;stroke:none;" name="Path No.10" d="M 21.0 42.3125 C 21.48604 43.223392 22.90906 42.724773 23.687323 42.681057 C 24.125723 42.62059 24.569529 42.559376 25.0 42.5 C 23.651035 42.33122 22.34087 42.098698 21.0 42.0 C 21.0 42.116665 21.0 42.220833 21.0 42.3125 Z " />

<path style="fill:rgb(19.215687%,39.215687%,59.607845%);fill-rule:evenodd;stroke:none;" name="Path No.11" d="M 52.0 46.3125 C 52.36687 47.045143 53.418972 46.806076 54.060238 46.679 C 54.369755 46.62005 54.699635 46.557213 55.0 46.5 C 54.003014 46.328724 53.00953 46.085724 52.0 46.0 C 52.0 46.116665 52.0 46.220833 52.0 46.3125 Z " />

<path style="fill:rgb(0.0%,17.647058%,45.098038%);fill-rule:evenodd;stroke:none;" name="Path No.12" d="M 24.0 11.0 C 24.0 10.394116 24.0 9.65726 24.0 9.0 C 23.333345 9.0 22.656408 9.0 22.0 9.0 C 21.806461 10.549063 22.734217 11.15338 24.0 11.0 Z " />

<path style="fill:rgb(37.2549%,52.941177%,68.62746%);fill-rule:evenodd;stroke:none;" name="Path No.13" d="M 24.0 12.0 C 24.0 11.394116 24.0 10.65726 24.0 10.0 C 23.333345 10.0 22.656408 10.0 22.0 10.0 C 21.806461 11.549063 22.734217 12.15338 24.0 12.0 Z " />

<path style="fill:rgb(0.0%,20.0%,46.666668%);fill-rule:evenodd;stroke:none;" name="Path No.14" d="M 23.5 12.0 C 24.195932 10.909867 23.441536 9.843215 22.538363 9.20775 C 22.337374 9.130191 22.157919 9.06094 22.0 9.0 C 21.879042 10.37826 22.588223 11.210273 23.5 12.0 Z " />

<path style="fill:rgb(43.137257%,57.254906%,71.76471%);fill-rule:evenodd;stroke:none;" name="Path No.15" d="M 23.0 11.4375 C 23.359118 11.85035 23.647789 11.7395 24.0 11.5 C 23.649626 11.227404 23.331888 11.111199 23.0 11.4375 Z " />

<path style="fill:rgb(0.0%,14.509805%,43.137257%);fill-rule:evenodd;stroke:none;" name="Path No.16" d="M 22.5 11.0 C 22.794552 10.357207 22.984505 9.7018385 23.0 9.0 C 22.10621 9.081524 21.925545 9.796942 22.166674 10.481334 C 22.291115 10.674969 22.402224 10.847857 22.5 11.0 Z " />

<path style="fill:rgb(0.0%,20.392157%,47.058823%);fill-rule:evenodd;stroke:none;" name="Path No.17" d="M 22.0 10.4375 C 22.359118 10.85035 22.647789 10.7395 23.0 10.5 C 22.649626 10.227404 22.331888 10.111199 22.0 10.4375 Z " />
</g>
</svg>
